<svg xmlns="http://www.w3.org/2000/svg" viewBox="0 0 512.002 512.002" style="enable-background:new 0 0 512.002 512.002" xml:space="preserve" fill="#fffc4a"><path d="M208.963 282.35h-15.11c-3.793 12.556-15.627 22.049-30.616 23.63v182.949c0 12.742 10.33 23.072 23.072 23.072 12.742 0 23.072-10.33 23.072-23.072 0-190.013-.418-206.579-.418-206.579zM124.02 282.35h-16.901l.009 206.58c0 12.742 10.33 23.072 23.072 23.072 12.742 0 23.072-10.33 23.072-23.072V305.811c-14.542-2.033-25.624-11.454-29.252-23.461zM224.074 44.044c-2.306-7.498-10.255-11.71-17.753-9.399-3.132.964-6.286 1.804-9.45 2.576l-8.909-33.273a5.324 5.324 0 0 0-6.342-3.81l-16.554 3.829a31.173 31.173 0 0 1-14.049 0L134.463.138a5.325 5.325 0 0 0-6.342 3.81l-8.909 33.273c-3.164-.772-6.319-1.613-9.45-2.576-7.503-2.31-15.447 1.902-17.753 9.399-2.309 7.499 1.9 15.447 9.397 17.753a194.072 194.072 0 0 0 16.825 4.359c-.869 22.777 17.349 41.392 39.809 41.392 22.442 0 40.679-18.598 39.809-41.392a194.413 194.413 0 0 0 16.824-4.359c7.499-2.305 11.708-10.254 9.401-17.753z"/><ellipse cx="158.935" cy="273.828" rx="19.136" ry="15.341"/><path d="M445.987 81.34a2549.726 2549.726 0 0 0-25.976-7.092c.946-2.808.239-.665 3.98-12.103 1.856-5.746-2.958-11.381-8.866-10.502l-.195.029c-9.475 1.41-2.759.341-19.435 2.933l-4.803-14.788-.021-.064c-2.309-7.022-12.087-7.748-15.334-1.012-1.413 2.931-7.653 16.35-9.327 19.983l-8.826-10.712c-3.976-4.785-11.833-2.218-12.158 4.036-.276 5.297-.572 10.59-.829 15.889a1506.56 1506.56 0 0 0-24.369 6.548c-5.099 1.42-4.556 6.95-1.032 8.389 6.622 2.704 20.219 8.04 30.66 11.914a887.214 887.214 0 0 0-4.371 5.249.694.694 0 0 0 .038.928.698.698 0 0 0 .927.064 623.067 623.067 0 0 0 7.331-5.789c.803-.654.878-1.879-.437-2.686-4.739-2.91-13.573-8.11-18.806-11.142 11.774-1.763 7.033-1.029 17.223-2.639 2.446-.389 4.385-2.122 4.872-5.447.116-.796.219-1.592.331-2.388 1.718 2.362 3.433 4.728 5.171 7.075 3.433 4.599 10.416 3.94 12.971-1.085l.144-.282c2.08-4.089 4.171-8.172 6.228-12.271.229.707.452 1.417.684 2.123l.032.102a8.308 8.308 0 0 0 9.239 5.598l13.661-2.248-2.133 7.394c-1.44 4.975 1.609 9.028 5.628 9.886 8.659 1.848 7.388 1.597 19.123 3.991-4.738 3.177-13.459 9.096-19.608 13.383-2.536 1.766-2.818 4.108-1.769 5.957 3.32 5.847 2.334 4.172 8.102 14.127a924.522 924.522 0 0 0-15.199 5.122l-.273.095a1.241 1.241 0 0 0-.783 1.519c.826 2.849 1.413 4.879 1.877 6.476a.696.696 0 0 0 1.362-.242c-.097-1.403-.216-3.083-.37-5.279 10.006-1.38 14.159-2.061 18.865-2.786 1.574-.253 3.173-1.777 2.13-4.496-.965-2.516-4.41-11.175-5.723-14.406 11.27-5.866 25.394-13.481 31.973-17.136 4.832-2.704 4.743-10.362-1.909-12.215z"/><path d="M375.188 97.256a7.135 7.135 0 0 0-9.828 2.289c-.47.755-7.681 12.495-16.242 33.91l-3.432-1.332a8.265 8.265 0 0 0-10.698 4.714l-10.493 27.023c-6.726-5.316-16.427-5.651-23.559-.215l-45.541 34.718.079-32.696v-.143c-.126-24.964-20.537-45.272-45.5-45.272H106.108c-24.964 0-45.262 20.309-45.387 45.272V306.92c.027 10.608 8.859 19.182 19.453 19.181h.047c10.619-.026 18.974-8.654 18.948-19.273V165.663c-.011-.188 0-.37 0-.548 0-2.23 1.683-4.038 3.913-4.038s4.038 1.808 4.038 4.037v100.19h16.901c4.329-14.334 18.711-23.864 34.915-23.864 16.224 0 30.591 9.546 34.916 23.864h15.11V164.557c0-2.243 1.819-4.062 4.061-4.062s3.961 1.819 3.961 4.062c0 .349.045.719 0 1.11v71.554c-.039 16.002 18.177 24.918 30.747 15.337l60.723-46.291a8.266 8.266 0 0 0 5.259 8.2l22.719 8.822a8.267 8.267 0 0 0 10.698-4.714l25.989-66.933a8.267 8.267 0 0 0-4.714-10.698l-5.954-2.312c8.139-20.297 14.922-31.382 15.029-31.555a7.133 7.133 0 0 0-2.292-9.821z"/></svg>